<svg viewBox="0 0 14 14" fill="currentColor" xmlns="http://www.w3.org/2000/svg">
<path fill-rule="evenodd" clip-rule="evenodd" d="M7 13.1385C10.3902 13.1385 13.1385 10.3902 13.1385 7C13.1385 5.87695 12.8369 4.82434 12.3103 3.91874L9.07276 7.92305L9.94004 7.71598C10.1667 7.66187 10.3943 7.80172 10.4484 8.02835C10.5025 8.25498 10.3626 8.48256 10.136 8.53667L8.06386 9.03143C7.93573 9.06202 7.80066 9.031 7.69871 8.94758C7.59675 8.86415 7.53963 8.73789 7.54426 8.60623L7.61856 6.49622C7.62675 6.26336 7.82217 6.08124 8.05502 6.08944C8.28788 6.09764 8.47 6.29305 8.4618 6.52591L8.43195 7.3736L11.713 3.31548C11.7471 3.27325 11.7877 3.23935 11.8322 3.21402C10.7085 1.78173 8.96169 0.861538 7 0.861538C3.60982 0.861538 0.861538 3.60982 0.861538 7C0.861538 7.79472 1.01256 8.55417 1.28748 9.25121L4.46969 5.40588L3.6001 5.60304C3.37287 5.65456 3.1469 5.51212 3.09538 5.28489C3.04386 5.05766 3.1863 4.83169 3.41353 4.78017L5.49117 4.30909C5.61965 4.27996 5.75435 4.31252 5.85535 4.3971C5.95634 4.48169 6.01202 4.6086 6.00589 4.74019L5.90752 6.84922C5.89666 7.08196 5.69918 7.26184 5.46644 7.25099C5.23369 7.24013 5.05381 7.04265 5.06467 6.80991L5.10419 5.9626L1.77708 9.98302C1.74909 10.0168 1.71694 10.0452 1.68199 10.0679C2.74316 11.9034 4.72735 13.1385 7 13.1385ZM7 14C10.866 14 14 10.866 14 7C14 3.13401 10.866 0 7 0C3.13401 0 0 3.13401 0 7C0 10.866 3.13401 14 7 14Z"/>
</svg>
