<svg xmlns="http://www.w3.org/2000/svg" fill="none" viewBox="0 0 56 56"><path fill="currentColor" d="M28 12.367V49.77c-.397 0-.817-.07-1.143-.256l-.094-.047c-4.48-2.45-12.296-5.017-17.36-5.693l-.676-.093c-2.24-.28-4.06-2.38-4.06-4.62V10.873c0-2.777 2.263-4.877 5.04-4.644 4.9.397 12.32 2.87 16.473 5.46l.583.35c.35.21.794.327 1.237.327Z" opacity=".4"/><path fill="currentColor" d="M51.333 10.897V39.06c0 2.24-1.82 4.34-4.06 4.62l-.77.093c-5.086.677-12.926 3.267-17.406 5.74-.304.187-.677.257-1.097.257V12.367c.443 0 .887-.117 1.237-.327l.396-.257c4.154-2.613 11.597-5.11 16.497-5.53h.14c2.777-.233 5.063 1.844 5.063 4.644ZM18.083 21.56h-5.25c-.956 0-1.75-.793-1.75-1.75 0-.956.794-1.75 1.75-1.75h5.25c.957 0 1.75.794 1.75 1.75 0 .957-.793 1.75-1.75 1.75Zm1.75 7h-7c-.956 0-1.75-.793-1.75-1.75 0-.956.794-1.75 1.75-1.75h7c.957 0 1.75.794 1.75 1.75 0 .957-.793 1.75-1.75 1.75Z"/></svg>