<svg xmlns="http://www.w3.org/2000/svg" fill="none" viewBox="0 0 16 16"><path stroke="currentColor" stroke-linecap="round" stroke-linejoin="round" d="M6.667 14.667h2.666C12.667 14.667 14 13.334 14 10V6c0-3.333-1.333-4.667-4.667-4.667H6.667C3.333 1.333 2 2.667 2 6v4c0 3.334 1.333 4.667 4.667 4.667Z"/><path stroke="currentColor" stroke-linecap="round" stroke-linejoin="round" d="M11 5.053v.667c0 .547-.447 1-1 1H6c-.547 0-1-.447-1-1v-.667c0-.546.447-1 1-1h4a1 1 0 0 1 1 1Z"/><path stroke="currentColor" stroke-linecap="round" stroke-linejoin="round" stroke-width="1.4" d="M5.424 9.333h.008m2.565 0h.008m2.565.001h.007m-5.153 2.333h.008m2.565 0h.008m2.565 0h.007"/></svg>