<svg xmlns="http://www.w3.org/2000/svg" fill="none" viewBox="0 0 24 24"><path fill="currentColor" d="M20 10.95a.75.75 0 0 0 0-1.5v1.5ZM4 9.45a.75.75 0 0 0 0 1.5v-1.5Zm1.456 11.256-.344.666.344-.666Zm-1.165-1.18-.67.337.67-.337Zm15.418 0 .67.337-.67-.337Zm-1.165 1.18.344.666-.344-.666Zm0-15.612.344-.666-.344.666Zm1.165 1.18.67-.337-.67.337ZM5.456 5.094l-.344-.666.344.666Zm-1.165 1.18-.67-.337.67.337ZM16.306 3a.75.75 0 0 0-1.5 0h1.5Zm-1.5 3.6a.75.75 0 1 0 1.5 0h-1.5ZM9.194 3a.75.75 0 1 0-1.5 0h1.5Zm-1.5 3.6a.75.75 0 0 0 1.5 0h-1.5ZM20 9.45H4v1.5h16v-1.5ZM8.267 5.55h7.466v-1.5H8.267v1.5ZM19.25 9.12v7.56h1.5V9.12h-1.5Zm-3.517 11.13H8.267v1.5h7.466v-1.5ZM4.75 16.68V9.12h-1.5v7.56h1.5Zm3.517 3.57c-.76 0-1.283 0-1.69-.034-.398-.033-.616-.094-.777-.177l-.688 1.333c.41.211.85.298 1.341.339.483.04 1.08.039 1.814.039v-1.5ZM3.25 16.68c0 .744 0 1.346.039 1.834.04.496.125.938.332 1.349l1.34-.674c-.084-.167-.144-.391-.177-.796-.033-.413-.034-.945-.034-1.713h-1.5Zm2.55 3.36a1.934 1.934 0 0 1-.84-.851l-1.34.674a3.433 3.433 0 0 0 1.492 1.51l.688-1.334Zm13.45-3.36c0 .768 0 1.3-.034 1.713-.033.405-.093.63-.177.796l1.34.674c.207-.411.292-.853.332-1.35.04-.487.039-1.09.039-1.833h-1.5Zm-3.517 5.07c.735 0 1.33 0 1.814-.04.491-.04.931-.127 1.34-.338L18.2 20.04c-.16.083-.38.144-.777.177-.407.033-.93.034-1.69.034v1.5Zm3.306-2.561a1.931 1.931 0 0 1-.839.85l.688 1.333a3.433 3.433 0 0 0 1.491-1.51l-1.34-.673ZM15.733 5.55c.76 0 1.283 0 1.69.034.398.033.616.094.777.177l.688-1.333c-.41-.211-.85-.298-1.341-.339-.483-.04-1.08-.039-1.814-.039v1.5Zm5.017 3.57c0-.744 0-1.346-.039-1.834-.04-.496-.125-.938-.332-1.349l-1.34.674c.084.167.144.391.177.796.033.413.034.945.034 1.713h1.5ZM18.2 5.76c.36.186.654.484.84.851l1.34-.674a3.433 3.433 0 0 0-1.492-1.51L18.2 5.762ZM8.267 4.05c-.735 0-1.33 0-1.814.04-.491.04-.931.127-1.34.338L5.8 5.76c.16-.083.38-.144.777-.177.407-.033.93-.034 1.69-.034v-1.5ZM4.75 9.12c0-.768 0-1.3.034-1.713.033-.405.093-.63.177-.796l-1.34-.674c-.207.411-.292.853-.332 1.35-.04.487-.039 1.09-.039 1.833h1.5Zm.362-4.692a3.434 3.434 0 0 0-1.491 1.51l1.34.673c.185-.367.479-.665.839-.85l-.688-1.333ZM14.806 3v3.6h1.5V3h-1.5ZM7.694 3v3.6h1.5V3h-1.5Z"/></svg>