<svg xmlns="http://www.w3.org/2000/svg" fill="none" viewBox="0 0 16 16"><path stroke="currentColor" stroke-linecap="round" stroke-linejoin="round" stroke-width="1.4" d="M4.5 1h5.522c1.743 0 2.614 0 3.28.34a3.111 3.111 0 0 1 1.359 1.359C15 3.364 15 4.235 15 5.978V11.5M3.489 15h6.3c.871 0 1.307 0 1.64-.17.292-.149.53-.387.68-.68.169-.332.169-.768.169-1.639v-6.3c0-.871 0-1.307-.17-1.64a1.555 1.555 0 0 0-.68-.68c-.332-.169-.768-.169-1.64-.169h-6.3c-.87 0-1.306 0-1.639.17-.292.149-.53.387-.68.68C1 4.904 1 5.34 1 6.212v6.3c0 .87 0 1.306.17 1.639.149.292.387.53.68.68.332.169.768.169 1.639.169Z"/></svg>