<svg xmlns="http://www.w3.org/2000/svg" fill="none" viewBox="0 0 25 18"><path fill="currentColor" d="M0 9.439v-.877c0-2.134.546-3.799 1.639-4.993 1.099-1.194 2.474-1.791 4.126-1.791 1.651 0 2.944.454 3.878 1.362.94.902 1.41 1.992 1.41 3.269v.095h-1.83v-.095c0-.883-.285-1.614-.857-2.192-.572-.584-1.439-.877-2.601-.877-1.137 0-2.074.43-2.811 1.287-.737.857-1.106 2.17-1.106 3.935v.877c0 1.626.366 2.903 1.096 3.83.737.928 1.677 1.391 2.82 1.391 1.093 0 1.919-.295 2.478-.886.559-.59.883-1.318.972-2.182l.01-.095h1.829l-.01.095c-.127 1.27-.625 2.36-1.496 3.268-.87.909-2.13 1.363-3.782 1.363-1.652 0-3.027-.597-4.126-1.791C.546 13.236 0 11.572 0 9.438ZM12.154 2.016h1.944l3.678 10.272c.076.21.14.397.19.562.05.159.105.333.162.524h.086c.057-.19.111-.365.162-.524.057-.165.124-.353.2-.562l3.716-10.272h1.867l-5.183 13.969h-1.639L12.154 2.016Z"/></svg>