<svg xmlns="http://www.w3.org/2000/svg" fill="none" viewBox="0 0 16 16"><path fill="currentColor" d="M7.133 1.505a1 1 0 0 1 1.734 0l.497.865a1 1 0 0 0 1.21.44l.937-.342a1 1 0 0 1 1.328 1.114l-.175.982a1 1 0 0 0 .644 1.115l.938.34a1 1 0 0 1 .3 1.707l-.764.64a1 1 0 0 0-.224 1.268l.5.863a1 1 0 0 1-.867 1.5h-.997a1 1 0 0 0-.986.827l-.172.983a1 1 0 0 1-1.629.592l-.763-.641a1 1 0 0 0-1.288 0l-.763.642a1 1 0 0 1-1.629-.593l-.172-.983a1 1 0 0 0-.986-.827H2.81a1 1 0 0 1-.867-1.5l.5-.863a1 1 0 0 0-.224-1.268l-.765-.64a1 1 0 0 1 .301-1.707l.938-.34a1 1 0 0 0 .644-1.115l-.175-.982A1 1 0 0 1 4.49 2.468l.937.342a1 1 0 0 0 1.21-.44l.497-.865Z"/><path fill="white" fill-rule="evenodd" d="M7.11 6.111a1 1 0 1 1-2 0 1 1 0 0 1 2 0Zm-1.615 4.617a.7.7 0 0 1 0-.99l4.243-4.243a.7.7 0 0 1 .99.99l-4.243 4.243a.7.7 0 0 1-.99 0Zm4.616.383a1 1 0 1 0 0-2 1 1 0 0 0 0 2Z" clip-rule="evenodd"/></svg>