<svg xmlns="http://www.w3.org/2000/svg" fill="none" viewBox="0 0 12 12"><path stroke="currentColor" stroke-linecap="round" stroke-linejoin="round" d="M8.222 8.901 11 6m0 0L8.222 3.099M11 6H4.333M6 8.901c0 .172 0 .257-.006.332-.064.772-.608 1.407-1.336 1.558a3.9 3.9 0 0 1-.314.043l-.568.066c-.852.099-1.279.148-1.617.035a1.694 1.694 0 0 1-1.014-.947C1 9.648 1 9.2 1 8.305v-4.61c0-.896 0-1.344.145-1.683a1.694 1.694 0 0 1 1.014-.947c.338-.113.765-.064 1.617.035l.568.066c.163.019.244.028.314.043.728.151 1.272.786 1.336 1.558C6 2.842 6 2.927 6 3.1"/></svg>