<svg xmlns="http://www.w3.org/2000/svg" fill="none" stroke-width=".5" viewBox="0 0 24 24"><path fill="currentColor" fill-rule="evenodd" d="M8.768 1.25H14a.75.75 0 0 1 .53.22l6 6c.141.14.22.331.22.53v9.232c0 .813 0 1.469-.043 2-.045.546-.14 1.026-.366 1.47a3.75 3.75 0 0 1-1.639 1.64c-.444.226-.924.32-1.47.365-.531.043-1.187.043-2 .043H5.5a.75.75 0 0 1 0-1.5h9.7c.852 0 1.447 0 1.91-.038.453-.038.714-.107.912-.207.423-.216.767-.56.983-.983.1-.198.17-.459.207-.913.037-.462.038-1.057.038-1.909V8.75h-3.676c-.258 0-.494 0-.692-.016a1.774 1.774 0 0 1-.676-.175 1.75 1.75 0 0 1-.765-.764 1.775 1.775 0 0 1-.175-.677c-.016-.198-.016-.434-.016-.692V2.75H8.8c-.852 0-1.447 0-1.91.038-.453.037-.714.107-.911.207a2.25 2.25 0 0 0-.984.984c-.1.197-.17.458-.207.912-.037.462-.038 1.057-.038 1.909v4.4a.75.75 0 0 1-1.5 0V6.768c0-.813 0-1.469.043-2 .045-.546.14-1.026.366-1.47a3.75 3.75 0 0 1 1.639-1.64c.444-.226.924-.32 1.47-.365.531-.043 1.187-.043 2-.043Zm5.982 2.56 3.44 3.44H15.6c-.292 0-.467 0-.596-.011a.626.626 0 0 1-.12-.018.25.25 0 0 1-.105-.104.638.638 0 0 1-.018-.121 8.375 8.375 0 0 1-.011-.596V3.81Zm.03 3.31v-.002.001Zm.1.1h.002-.001ZM7.25 7A.75.75 0 0 1 8 6.25h2a.75.75 0 0 1 0 1.5H8A.75.75 0 0 1 7.25 7Zm0 4a.75.75 0 0 1 .75-.75h8a.75.75 0 0 1 0 1.5H8a.75.75 0 0 1-.75-.75Z" clip-rule="evenodd"/><path fill="currentColor" d="M13.723 15.92a.47.47 0 0 0-.163-.339c-.095-.08-.241-.121-.437-.121a.87.87 0 0 0-.306.045.368.368 0 0 0-.174.12.296.296 0 0 0-.058.174.286.286 0 0 0 .028.145c.023.042.06.08.109.115a.85.85 0 0 0 .189.091c.076.028.168.053.273.074l.365.078c.247.053.457.121.632.207.176.085.319.186.43.302.112.114.194.243.246.387.054.143.081.3.083.469a1.26 1.26 0 0 1-.22.743 1.34 1.34 0 0 1-.621.462c-.268.106-.59.159-.967.159-.386 0-.724-.057-1.012-.172a1.411 1.411 0 0 1-.67-.528c-.157-.238-.237-.544-.238-.916h1.147a.68.68 0 0 0 .102.343c.06.093.146.163.256.21.112.048.244.072.398.072a.95.95 0 0 0 .323-.047.437.437 0 0 0 .198-.133.312.312 0 0 0 .07-.193.274.274 0 0 0-.068-.178.52.52 0 0 0-.208-.14 2.225 2.225 0 0 0-.393-.117l-.444-.095c-.393-.086-.704-.228-.931-.428-.226-.202-.339-.476-.337-.824a1.219 1.219 0 0 1 .226-.74c.153-.213.365-.379.636-.498.273-.119.585-.178.937-.178.359 0 .67.06.931.18.263.12.465.29.607.509.143.217.215.471.217.762h-1.156ZM7.83 18.979v-4.45h1.208v3.477h1.799v.973H7.831ZM4.46 14.53l.73 1.295h.034l.739-1.295H7.31l-1.33 2.224 1.382 2.225H5.98l-.756-1.321H5.19l-.756 1.32H3.061l1.364-2.224-1.321-2.224H4.46Z"/></svg>
