<svg xmlns="http://www.w3.org/2000/svg" fill="none" viewBox="0 0 24 24"><path stroke="currentColor" stroke-linecap="round" stroke-linejoin="round" stroke-width="1.5" d="M2 4.721c0-.56 0-.84.109-1.054a1 1 0 0 1 .437-.437c.214-.109.494-.109 1.054-.109h16.8c.56 0 .84 0 1.054.11a1 1 0 0 1 .437.436c.109.214.109.494.109 1.054v.67c0 .268 0 .403-.033.528-.029.11-.077.215-.141.31-.073.106-.175.195-.378.37l-6.396 5.544c-.203.176-.305.264-.377.37-.065.095-.113.2-.142.31-.033.125-.033.26-.033.529v5.227c0 .196 0 .294-.031.378a.5.5 0 0 1-.133.196c-.066.06-.157.097-.339.17l-3.4 1.36c-.367.146-.551.22-.699.19a.5.5 0 0 1-.315-.214c-.083-.126-.083-.324-.083-.72v-6.587c0-.27 0-.404-.033-.529a1 1 0 0 0-.141-.31c-.073-.106-.175-.194-.378-.37L2.552 6.6c-.203-.176-.305-.265-.378-.371a1 1 0 0 1-.141-.31C2 5.794 2 5.659 2 5.39v-.669Z"/></svg>