<svg xmlns="http://www.w3.org/2000/svg" fill="none" viewBox="0 0 24 24"><path stroke="currentColor" stroke-linecap="round" stroke-linejoin="round" stroke-width="1.5" d="M12 16.556V21m5.4 0-3.556-2.927c-.656-.54-.984-.81-1.35-.913a1.822 1.822 0 0 0-.988 0c-.366.103-.694.373-1.35.913L6.6 21m1.8-8.889V13m3.6-2.667V13m3.6-4.444V13M21 5H3m.9 0h16.2v7.289c0 1.493 0 2.24-.294 2.81-.26.502-.672.91-1.18 1.166-.578.29-1.334.29-2.846.29H8.22c-1.512 0-2.268 0-2.846-.29a2.684 2.684 0 0 1-1.18-1.165c-.294-.57-.294-1.318-.294-2.811V5Z"/></svg>