<svg xmlns="http://www.w3.org/2000/svg" fill="none" viewBox="0 0 22 22"><path fill="currentColor" d="M0 0h14a8 8 0 0 1 8 8v14H8a8 8 0 0 1-8-8V0Z"/><path fill="white" fill-rule="evenodd" d="M8.521 5.05a.5.5 0 0 1 .416-.222h4.126a.5.5 0 0 1 .415.223l.883 1.324h1.795a1.531 1.531 0 0 1 1.532 1.531v7.219a1.531 1.531 0 0 1-1.532 1.531H5.844a1.531 1.531 0 0 1-1.532-1.531V7.906a1.531 1.531 0 0 1 1.532-1.531h1.795l.882-1.324Zm.684.778-.883 1.324a.5.5 0 0 1-.416.223H5.844a.531.531 0 0 0-.532.531v7.219a.531.531 0 0 0 .532.531h10.312a.531.531 0 0 0 .532-.531V7.906a.531.531 0 0 0-.532-.531h-2.062a.5.5 0 0 1-.416-.223l-.883-1.324h-3.59ZM11 9.438a1.82 1.82 0 1 0 0 3.64 1.82 1.82 0 0 0 0-3.64Zm-2.82 1.82a2.82 2.82 0 1 1 5.64 0 2.82 2.82 0 0 1-5.64 0Z" clip-rule="evenodd"/></svg>