<svg xmlns="http://www.w3.org/2000/svg" fill="none" viewBox="0 0 24 24"><path stroke="currentColor" stroke-linecap="round" stroke-linejoin="round" stroke-width="1.5" d="M9.667 11.706h3.5A2.343 2.343 0 0 0 15.5 9.353C15.5 8.053 14.455 7 13.167 7h-3.5v4.706Zm0 0H8.5m4.083 2.353H8.5m1.167-6.765V17"/><path stroke="currentColor" stroke-linecap="round" stroke-linejoin="round" stroke-width="1.5" d="M5 3h14v18l-1.032-.884a2 2 0 0 0-2.603 0L14.333 21l-1.031-.884a2 2 0 0 0-2.604 0L9.667 21l-1.032-.884a2 2 0 0 0-2.603 0L5 21V3Z"/></svg>