<svg xmlns="http://www.w3.org/2000/svg" fill="none" viewBox="0 0 24 24"><path stroke="currentColor" stroke-linecap="round" stroke-linejoin="round" stroke-width="1.5" d="m12 21-.09-.133c-.625-.927-.938-1.39-1.35-1.725a3.614 3.614 0 0 0-1.24-.655c-.512-.154-1.076-.154-2.203-.154H5.88c-1.008 0-1.512 0-1.897-.193a1.79 1.79 0 0 1-.787-.777C3 16.983 3 16.485 3 15.489V7.844c0-.995 0-1.493.196-1.873.173-.335.448-.607.787-.777C4.368 5 4.872 5 5.88 5h.36c2.016 0 3.024 0 3.794.388.678.34 1.228.884 1.574 1.553.392.76.392 1.757.392 3.748M12 21V10.689M12 21l.09-.133c.625-.927.938-1.39 1.35-1.725.366-.297.788-.52 1.24-.655.512-.154 1.076-.154 2.203-.154h1.237c1.008 0 1.512 0 1.897-.193a1.79 1.79 0 0 0 .787-.777c.196-.38.196-.878.196-1.874V7.844c0-.995 0-1.493-.196-1.873a1.79 1.79 0 0 0-.787-.777C19.632 5 19.128 5 18.12 5h-.36c-2.016 0-3.024 0-3.794.388a3.578 3.578 0 0 0-1.574 1.553C12 7.701 12 8.698 12 10.69"/></svg>