<svg xmlns="http://www.w3.org/2000/svg" fill="none" viewBox="0 0 16 16"><path stroke="currentColor" stroke-linecap="round" stroke-linejoin="round" d="M1.333 6V4.333c0-1.66 1.34-3 3-3H6m4 0h1.667c1.66 0 3 1.34 3 3V6m0 4.666v1c0 1.66-1.34 3-3 3h-1M6 14.667H4.333c-1.66 0-3-1.34-3-3V10M7 6.09v1.82C7 8.635 6.7 9 6.1 9H4.9C4.3 9 4 8.636 4 7.91V6.09C4 5.365 4.3 5 4.9 5h1.2c.6 0 .9.364.9 1.09Zm5 0v1.82c0 .726-.3 1.09-.9 1.09H9.9C9.3 9 9 8.636 9 7.91V6.09C9 5.365 9.3 5 9.9 5h1.2c.6 0 .9.364.9 1.09ZM12 11H4"/></svg>