<svg xmlns="http://www.w3.org/2000/svg" fill="none" viewBox="0 0 18 12"><path fill="currentColor" d="M8.474 11.188c0-.427.346-.772.772-.772h1.231a.772.772 0 0 1 0 1.543H9.246a.772.772 0 0 1-.772-.771ZM8.474 7.721c0-.426.346-.772.772-.772h2.826a.772.772 0 0 1 0 1.544H9.246a.772.772 0 0 1-.772-.772ZM9.246 3.459a.772.772 0 0 0 0 1.543h5.072a.772.772 0 1 0 0-1.543H9.246ZM8.474.772c0-.427.346-.772.772-.772h7.389a.772.772 0 1 1 0 1.543h-7.39a.772.772 0 0 1-.77-.771ZM4.827 11.228a.772.772 0 1 1-1.543 0V2.573L2.216 3.641A.772.772 0 1 1 1.124 2.55L3.403.27a.926.926 0 0 1 1.31 0L6.99 2.55a.772.772 0 0 1-1.092 1.09L4.827 2.569v8.66Z"/></svg>