<svg xmlns="http://www.w3.org/2000/svg" fill="none" viewBox="0 0 22 16"><path fill="currentColor" d="M9.817 14.498a1 1 0 0 1 1-1h1.596a1 1 0 1 1 0 2h-1.596a1 1 0 0 1-1-1Zm0-4.492a1 1 0 0 1 1-1h3.663a1 1 0 1 1 0 2h-3.663a1 1 0 0 1-1-1Zm1-5.524a1 1 0 1 0 0 2h6.574a1 1 0 1 0 0-2h-6.574ZM9.817 1a1 1 0 0 1 1-1h9.576a1 1 0 1 1 0 2h-9.576a1 1 0 0 1-1-1ZM5.09 1a1 1 0 1 0-2 0v11.216l-1.383-1.383a1 1 0 0 0-1.414 1.414L3.245 15.2a1.2 1.2 0 0 0 1.697 0l2.953-2.953a1 1 0 1 0-1.414-1.414l-1.39 1.39V1Z"/></svg>