<svg xmlns="http://www.w3.org/2000/svg" fill="none" viewBox="0 0 24 24"><path stroke="currentColor" stroke-linecap="round" stroke-linejoin="round" stroke-width="1.5" d="M15.5 4.8c.814 0 1.22 0 1.554.092.906.25 1.614.977 1.857 1.91.089.342.089.76.089 1.598v8.28c0 1.512 0 2.268-.286 2.846a2.663 2.663 0 0 1-1.147 1.18C17.005 21 16.27 21 14.8 21H9.2c-1.47 0-2.205 0-2.767-.294a2.664 2.664 0 0 1-1.147-1.18C5 18.948 5 18.192 5 16.68V8.4c0-.837 0-1.255.09-1.599a2.66 2.66 0 0 1 1.856-1.909C7.279 4.8 7.686 4.8 8.5 4.8m.875 9 1.75 1.8 3.938-4.05M9.9 6.6h4.2c.49 0 .735 0 .922-.098a.888.888 0 0 0 .383-.393c.095-.193.095-.445.095-.949v-.72c0-.504 0-.756-.095-.949a.888.888 0 0 0-.383-.393C14.835 3 14.59 3 14.1 3H9.9c-.49 0-.735 0-.922.098a.888.888 0 0 0-.383.393c-.095.193-.095.445-.095.949v.72c0 .504 0 .756.095.949a.888.888 0 0 0 .383.393c.187.098.432.098.922.098Z"/></svg>