<svg xmlns="http://www.w3.org/2000/svg" fill="none" viewBox="0 0 19 20"><path fill="currentColor" d="M3.167 9.306a.5.5 0 0 0 0 1v-1Zm0 1h4.867v-1H3.167v1Z"/><path stroke="currentColor" stroke-linecap="round" stroke-linejoin="round" stroke-width="1.5" d="m6.187 7.958 1.847 1.848-1.847 1.847"/><path fill="currentColor" d="M15.834 9.306a.5.5 0 0 1 0 1v-1Zm0 1h-4.868v-1h4.868v1Z"/><path stroke="currentColor" stroke-linecap="round" stroke-linejoin="round" stroke-width="1.5" d="m12.813 7.958-1.847 1.848 1.848 1.847"/><path stroke="currentColor" stroke-linecap="round" stroke-width="1.5" d="M2.709 11.498c0-8.422-.05-8.422 4.969-8.422"/><path stroke="currentColor" stroke-linecap="round" stroke-width="1.5" d="M7.675 16.765c-5.02 0-4.96 0-4.96-7.13M16.31 11.498c0-8.422.05-8.422-4.97-8.422"/><path stroke="currentColor" stroke-linecap="round" stroke-width="1.5" d="M11.343 16.765c5.02 0 4.96 0 4.96-7.13"/></svg>
