<svg viewBox="0 0 56 57" fill="none" xmlns="http://www.w3.org/2000/svg">
<path opacity="0.4" d="M27.9994 51.8334C40.886 51.8334 51.3327 41.3867 51.3327 28.5001C51.3327 15.6134 40.886 5.16675 27.9994 5.16675C15.1127 5.16675 4.66602 15.6134 4.66602 28.5001C4.66602 41.3867 15.1127 51.8334 27.9994 51.8334Z" fill="#D04B49"/>
<path d="M30.4732 28.5001L35.8398 23.1334C36.5165 22.4568 36.5165 21.3368 35.8398 20.6601C35.1632 19.9834 34.0432 19.9834 33.3665 20.6601L27.9998 26.0268L22.6332 20.6601C21.9565 19.9834 20.8365 19.9834 20.1598 20.6601C19.4832 21.3368 19.4832 22.4568 20.1598 23.1334L25.5265 28.5001L20.1598 33.8668C19.4832 34.5434 19.4832 35.6634 20.1598 36.3401C20.5098 36.6901 20.9532 36.8534 21.3965 36.8534C21.8398 36.8534 22.2832 36.6901 22.6332 36.3401L27.9998 30.9734L33.3665 36.3401C33.7165 36.6901 34.1598 36.8534 34.6032 36.8534C35.0465 36.8534 35.4898 36.6901 35.8398 36.3401C36.5165 35.6634 36.5165 34.5434 35.8398 33.8668L30.4732 28.5001Z" fill="#D04B49"/>
</svg>
